<svg xmlns="http://www.w3.org/2000/svg" width="20" height="20" fill="none" viewBox="0 0 20 20"><circle cx="10" cy="10" r="10" fill="url(#a)"/><g filter="url(#b)"><path fill="#fff" d="M13.292 5.295a1 1 0 0 1 1.498 1.32l-.083.094-3.293 3.292 3.293 3.292a1 1 0 0 1-1.32 1.497l-.096-.083-3.29-3.292-3.292 3.292a1 1 0 0 1-1.497-1.32l.083-.094 3.291-3.292-3.29-3.292a1 1 0 0 1 1.32-1.497l.093.083 3.292 3.29z"/></g><defs><linearGradient id="a" x1="-9.262" x2="11.668" y1="12.438" y2="31.658" gradientUnits="userSpaceOnUse"><stop stop-color="#a2a3b8"/><stop offset="1" stop-color="#808191"/></linearGradient><filter id="b" width="13.996" height="13.998" x="3.002" y="5.002" color-interpolation-filters="sRGB" filterUnits="userSpaceOnUse"><feFlood flood-opacity="0" result="BackgroundImageFix"/><feColorMatrix in="SourceAlpha" result="hardAlpha" values="0 0 0 0 0 0 0 0 0 0 0 0 0 0 0 0 0 0 127 0"/><feOffset dy="2"/><feGaussianBlur stdDeviation="1"/><feColorMatrix values="0 0 0 0 0 0 0 0 0 0 0 0 0 0 0 0 0 0 0.230622 0"/><feBlend in2="BackgroundImageFix" result="effect1_dropShadow_check_inactive"/><feBlend in="SourceGraphic" in2="effect1_dropShadow_check_inactive" result="shape"/></filter></defs></svg>