<svg xmlns="http://www.w3.org/2000/svg" width="124" height="50" fill="none" viewBox="0 0 124 50"><path fill="#fffffe" d="M43.335 31.9q2.573.001 4.619 1.216a8.33 8.33 0 0 1 3.144 3.264q1.1 2.044 1.099 4.508.001.698-.091 1.363h-12.97q.295 1.752 1.402 2.689 1.108.936 2.797.937 1.193 0 2.147-.527a3.77 3.77 0 0 0 1.48-1.456h4.864q-.93 2.804-3.224 4.455-2.292 1.65-5.267 1.649-2.495 0-4.533-1.186a8.5 8.5 0 0 1-3.199-3.26q-1.162-2.079-1.161-4.603 0-2.54 1.154-4.617a8.4 8.4 0 0 1 3.192-3.254q2.036-1.178 4.547-1.178m19.63 0q3.316 0 5.695 1.931 2.379 1.926 3.013 5.104H67.07q-.558-1.27-1.657-1.976-1.1-.704-2.479-.703-1.874-.002-3.138 1.338t-1.262 3.324q-.001 1.983 1.27 3.355t3.13 1.37q1.41 0 2.479-.744t1.657-2.12h4.665q-.605 3.236-3.03 5.227-2.425 1.993-5.77 1.992a9.2 9.2 0 0 1-3.596-.705q-1.688-.705-2.896-1.914a8.8 8.8 0 0 1-1.906-2.897 9.3 9.3 0 0 1-.698-3.578q0-1.892.698-3.565.697-1.674 1.906-2.866t2.903-1.881a9.5 9.5 0 0 1 3.618-.692m26.695 9.856q0 1.828.913 2.86.913 1.028 2.524 1.028 1.613 0 2.513-1.038.895-1.037.895-2.85V32.38h4.635v9.901q0 3.472-2.201 5.593-2.2 2.124-5.842 2.123-3.626.001-5.847-2.123-2.224-2.121-2.224-5.593V32.38h4.634zM25.102 27.3q3.345 0 5.554 2.083 2.207 2.085 2.208 5.276 0 2.154-1.085 3.852-1.086 1.695-2.958 2.61l4.91 8.398h-5.377l-6.885-12.024h3.307q1.487 0 2.354-.798.868-.799.869-2.068 0-1.271-.869-2.077-.867-.805-2.354-.805h-6.599L15.631 27.3zm93.388 5.08h4.726v3.72h-4.648v6.68q0 1.254.682 1.935.68.683 1.953.681h2.106v4.124h-3.284q-2.82-.001-4.455-1.637-1.635-1.635-1.634-4.485V36.1h-3.099v-.992l6.77-7.204h.883zm-35.108 0v4.123h-2.106q-1.27 0-1.952.681-.682.682-.683 1.937V49.52h-4.63V38.502q-.001-2.852 1.632-4.484 1.636-1.636 4.455-1.637zm25.813 17.139h-4.634V32.38h4.634zm-65.86-13.668q-1.532 0-2.604.853c-.71.569-1.203 1.364-1.47 2.386h8.305q-.481-1.566-1.574-2.4-1.092-.838-2.657-.84m65.843-5.438h-4.617v-4.617h4.617z"/><path fill="#52b4da" d="M18.178 44.254a2.873 2.873 0 1 1 0 5.746 2.873 2.873 0 0 1 0-5.746m9.524-39.652q2.573 0 4.62 1.215 2.044 1.218 3.144 3.263t1.1 4.508q0 .698-.092 1.364h-12.97q.295 1.751 1.402 2.689 1.108.935 2.796.936 1.193.001 2.148-.526a3.77 3.77 0 0 0 1.48-1.457h4.863q-.93 2.804-3.223 4.455-2.293 1.65-5.268 1.65-2.494 0-4.532-1.186a8.5 8.5 0 0 1-3.198-3.26q-1.162-2.079-1.162-4.603 0-2.54 1.154-4.618a8.4 8.4 0 0 1 3.192-3.253q2.037-1.178 4.546-1.177m48.496 0q2.603 0 4.727 1.168a8.56 8.56 0 0 1 3.33 3.249q1.21 2.076 1.21 4.631 0 2.54-1.21 4.618a8.6 8.6 0 0 1-3.33 3.253Q78.8 22.7 76.198 22.7q-2.616 0-4.739-1.178a8.56 8.56 0 0 1-3.325-3.253q-1.2-2.078-1.2-4.618 0-2.572 1.2-4.64a8.5 8.5 0 0 1 3.325-3.24q2.123-1.168 4.74-1.168m31.99 0q2.573 0 4.62 1.215a8.33 8.33 0 0 1 3.143 3.263q1.1 2.045 1.1 4.508.001.698-.091 1.364h-12.97q.295 1.751 1.402 2.689 1.108.935 2.796.936 1.194.001 2.148-.526a3.76 3.76 0 0 0 1.479-1.457h4.864q-.93 2.804-3.223 4.455-2.293 1.65-5.268 1.65-2.495 0-4.532-1.186a8.5 8.5 0 0 1-3.199-3.26q-1.162-2.079-1.161-4.603 0-2.54 1.154-4.618a8.4 8.4 0 0 1 3.192-3.253q2.036-1.178 4.546-1.177M9.47 0q3.346 0 5.554 2.084 2.207 2.085 2.207 5.276.001 2.154-1.084 3.85t-2.958 2.611l4.91 8.398h-5.377L5.837 10.195h3.307q1.487 0 2.354-.798.867-.796.868-2.068 0-1.27-.868-2.076-.867-.806-2.354-.806H2.546L0 0zm49.115 4.68q2.666 0 4.347 1.888 1.68 1.892 1.681 4.896v10.755H59.98V12.24q0-1.722-.659-2.61-.659-.893-1.913-.894-1.55 0-2.425 1.109-.876 1.11-.877 3.106v9.267H49.6V12.24q0-1.722-.644-2.61-.642-.893-1.88-.894-1.582 0-2.466 1.109-.882 1.11-.882 3.106v9.267h-4.634V5.08h3.223l.868 2.124a6.6 6.6 0 0 1 2.27-1.843 6.24 6.24 0 0 1 2.843-.681q1.627 0 2.93.717a5.25 5.25 0 0 1 2.045 2.024 6.4 6.4 0 0 1 2.3-2.005 6.4 6.4 0 0 1 3.013-.736m34.809.4h4.726V8.8h-4.648v6.679q0 1.254.681 1.935.681.682 1.953.682h2.107v4.123h-3.285q-2.82-.001-4.455-1.637-1.634-1.634-1.633-4.484V8.8H85.74v-.992L92.51.604h.883zM76.198 8.957q-1.996-.001-3.285 1.309-1.285 1.308-1.284 3.384 0 2.078 1.284 3.386 1.29 1.31 3.285 1.309 2.001 0 3.285-1.309 1.287-1.308 1.286-3.386.001-2.076-1.286-3.384-1.284-1.31-3.285-1.309m-48.496-.406q-1.53 0-2.602.853-1.068.852-1.472 2.386h8.305q-.48-1.565-1.573-2.4-1.091-.838-2.658-.84m80.486 0q-1.532 0-2.603.853-1.067.852-1.471 2.386h8.305q-.48-1.565-1.573-2.4-1.092-.838-2.658-.84"/><path fill="#fffffe" fill-rule="evenodd" d="M4.273 16 .772 22h7z" clip-rule="evenodd"/></svg>