<svg xmlns="http://www.w3.org/2000/svg" width="32" height="32" fill="none" viewBox="0 0 32 32"><circle cx="16" cy="16" r="16" fill="url(#a)" fill-opacity=".15"/><g clip-path="url(#b)"><path fill="#dcdef1" d="M24.325 19.75q-.113 0 0 0c-.225-.15-.375-.15-.525-.225h-.075c-.75-.225-1.425-.75-1.95-1.425a4.9 4.9 0 0 1-.675-1.2c-.075-.15 0-.225-.075-.225l.075-.075c.15-.15.375-.3.6-.375.375-.15.75-.3 1.125-.6.075-.075.15-.15.225-.3a1.04 1.04 0 0 0 0-.675c-.3-.15-.525-.3-.6-.375-.225-.15-.6-.15-.9-.075-.075 0-.15.075-.225.075s-.15.075-.225.075h-.3V13.3c0-.6 0-1.2-.075-1.725V11.5c-.225-1.05-.9-2.025-1.875-2.775-.675-.45-1.425-.75-2.25-.825h-.825c-.825 0-2.025.15-3.075.975-.675.525-1.2 1.2-1.5 1.95-.15.9-.15 1.725-.075 2.4v1.125c-.075 0-.225 0-.3-.075h-.3c-.075 0-.15-.075-.15-.075H10.3c-.3-.075-.6 0-.75.15h-.075c-.3.225-.45.45-.45.75v.15c0 .225.15.375.3.525.075.075.15.075.15.15L9.55 16c.3.225.675.3.975.45l.225-.075a.52.52 0 0 1 .3.225c.075.225-.15.525-.15.6q-.562 1.125-1.575 1.8c-.375.225-.75.375-1.125.525h-.075c-.15 0-.375.075-.6.375 0 0-.075.075-.075.15-.075.3 0 .525.15.675.075.15.225.225.3.225.375.225.825.3 1.2.45h.15l.225.075c.075 0 .225.075.3.075 0 .075.075.225.075.3 0 .15.075.225.075.375-.075.3.075.45.3.525s.375 0 .45 0c.6-.075 1.2-.15 1.65-.075.375.075.75.375 1.2.6.15.075.3.15.45.3.45.3.9.525 1.575.525h.375c.3 0 .6 0 .9-.075.375 0 .75-.15 1.05-.375l.675-.45c.375-.225.675-.45 1.05-.6.075 0 .225-.075.45-.075h.15c.45 0 .975 0 1.425.075h.15c.15 0 .3-.075.375-.225.075-.075.075-.15.15-.225l.075-.225c.075-.15.075-.375.15-.375h.15c.45-.075.825-.15 1.125-.3l.15-.075h.075c.15-.075.375-.15.6-.45.075-.15.15-.375.15-.525-.225-.15-.3-.3-.45-.45"/></g><defs><linearGradient id="a" x1="-16" x2="16" y1="16" y2="48" gradientUnits="userSpaceOnUse"><stop stop-color="#ebedff"/><stop offset="1" stop-color="#adb8ff"/></linearGradient><clipPath id="b"><path fill="#fff" d="M7 7h18v18H7z"/></clipPath></defs></svg>