<svg xmlns="http://www.w3.org/2000/svg" width="32" height="32" fill="none" viewBox="0 0 32 32"><circle cx="16" cy="16" r="16" fill="url(#a)" fill-opacity=".15"/><path fill="#dcdef1" d="M15.952 12.302a4.07 4.07 0 0 0-4.063 4.063 4.05 4.05 0 0 0 4.063 4.064 4.07 4.07 0 0 0 4.064-4.064c0-2.222-1.841-4.063-4.064-4.063m0 6.666a2.615 2.615 0 0 1-2.603-2.603 2.615 2.615 0 0 1 2.603-2.603 2.615 2.615 0 0 1 2.604 2.603 2.615 2.615 0 0 1-2.604 2.603M20.175 13.127a.92.92 0 1 0 0-1.841.92.92 0 0 0 0 1.84"/><path fill="#dcdef1" d="M22.556 9.826c-.826-.858-2-1.302-3.334-1.302h-6.54c-2.761 0-4.603 1.841-4.603 4.603v6.508c0 1.365.445 2.54 1.334 3.397.857.825 2 1.238 3.301 1.238h6.477c1.364 0 2.507-.444 3.333-1.238.857-.826 1.301-2 1.301-3.365v-6.54c0-1.333-.444-2.476-1.27-3.301m-.128 9.84c0 .985-.349 1.779-.92 2.318s-1.365.826-2.317.826h-6.477c-.952 0-1.746-.286-2.317-.826-.572-.571-.857-1.365-.857-2.349v-6.508c0-.952.285-1.746.857-2.317.54-.54 1.365-.826 2.317-.826h6.54c.952 0 1.746.286 2.317.857.54.572.857 1.366.857 2.286z"/><defs><linearGradient id="a" x1="-16" x2="16" y1="16" y2="48" gradientUnits="userSpaceOnUse"><stop stop-color="#ebedff"/><stop offset="1" stop-color="#adb8ff"/></linearGradient></defs></svg>