<svg xmlns="http://www.w3.org/2000/svg" width="32" height="32" fill="none" viewBox="0 0 32 32"><rect width="32" height="32" fill="url(#a)" fill-opacity=".15" rx="16"/><path fill="#dfe1f2" d="m22.198 11.268 1.001-.44a.333.333 0 0 1 .468.304c0 .38-.154 1.124-.601 2.262-.1 1.908-1.001 4.741-2.61 6.695-2.466 2.995-6.25 3.795-11.464 1.616-.335-.14-.237-.638.126-.64a8.5 8.5 0 0 0 3.743-.893c-1.134-.284-2.032-1.125-2.454-2.296a.3.3 0 0 1-.014-.052l-.13-.076c-1.152-.706-1.914-2.079-1.859-3.608l.235-.127c-.574-1.16-.35-2.622.496-3.344.118-.1.29-.106.416-.014 1.901 1.417 3.172 2.048 5.467 2.652.304-3.524 4.372-4.989 7.18-2.039"/><defs><linearGradient id="a" x1="-16" x2="16" y1="16" y2="48" gradientUnits="userSpaceOnUse"><stop stop-color="#ebedff"/><stop offset="1" stop-color="#adb8ff"/></linearGradient></defs></svg>